<?xml version="1.0" encoding="UTF-8" standalone="no"?>
<!DOCTYPE svg PUBLIC "-//W3C//DTD SVG 1.1//EN" "http://www.w3.org/Graphics/SVG/1.1/DTD/svg11.dtd">
<svg width="100%" height="100%" viewBox="0 0 2000 2000" version="1.1" xmlns="http://www.w3.org/2000/svg" xmlns:xlink="http://www.w3.org/1999/xlink" xml:space="preserve" xmlns:serif="http://www.serif.com/" style="fill-rule:evenodd;clip-rule:evenodd;stroke-linejoin:round;stroke-miterlimit:2;">
    <g transform="matrix(1,0,0,1,-589.159692,-9994.831236)">
        <g id="QuestLogger-Logo-Idea" serif:id="QuestLogger Logo Idea" transform="matrix(1,0,0,1,589.159692,9994.831236)">
            <rect x="0" y="0" width="2000" height="2000" style="fill:none;"/>
            <g transform="matrix(1.473184,0,0,1.473184,-374.19629,-145.611137)" fill="currentColor">
                <g transform="matrix(1,0,0,1,0,-5206.12497)">
                    <path d="M929.451,5544.435C1049.747,5544.435 1165.116,5592.222 1250.177,5677.284C1335.239,5762.346 1383.026,5877.714 1383.026,5998.01L1383.026,6468.501L912.535,6468.501C792.24,6468.501 676.871,6420.714 591.809,6335.652C506.747,6250.59 458.96,6135.222 458.96,6014.926L458.96,5998.01C458.96,5877.714 506.747,5762.346 591.809,5677.284C676.871,5592.222 792.24,5544.435 912.535,5544.435L929.451,5544.435ZM1027.448,5761.913L693.342,5761.913C680.425,5761.913 669.953,5772.385 669.953,5785.302L669.953,6119.408C669.953,6166.28 688.573,6211.232 721.716,6244.375C754.859,6277.519 799.812,6296.139 846.683,6296.139L1204.178,6296.139L1204.178,5938.644C1204.178,5891.772 1185.558,5846.82 1152.415,5813.676C1119.272,5780.533 1074.32,5761.913 1027.448,5761.913Z"/>
                </g>
                <g transform="matrix(0,-1.179271,1.179271,0,-6300.044476,1728.79277)">
                    <path d="M938.555,5966.558C845.779,6076.789 747.675,6216.305 731.577,6307.309L597.804,6307.309L597.804,6170.842C682.884,6179.635 829.185,6061.135 938.555,5966.558Z"/>
                </g>
                <g transform="matrix(0.431495,-0.115619,0.115619,0.431495,-180.413643,-1701.266176)">
                    <path d="M2172.961,5523.201L1981.749,5601.46C1924.993,5462.786 1841.195,5336.8 1735.243,5230.848L1881.337,5084.754C2006.682,5210.099 2105.817,5359.145 2172.961,5523.201Z"/>
                </g>
            </g>
        </g>
    </g>
</svg>
